<svg width="31" height="9" viewBox="0 0 31 9" fill="none" xmlns="http://www.w3.org/2000/svg">
<g id="BETA">
<path d="M0 8.72727V0H3.34091C3.97159 0 4.49574 0.0994318 4.91335 0.298295C5.33381 0.494318 5.64773 0.762784 5.85511 1.10369C6.06534 1.4446 6.17045 1.83097 6.17045 2.26278C6.17045 2.6179 6.10227 2.92188 5.96591 3.17472C5.82955 3.42472 5.64631 3.62784 5.41619 3.78409C5.18608 3.94034 4.92898 4.05256 4.64489 4.12074V4.20597C4.95455 4.22301 5.25142 4.31818 5.53551 4.49148C5.82244 4.66193 6.05682 4.90341 6.23864 5.21591C6.42045 5.52841 6.51136 5.90625 6.51136 6.34943C6.51136 6.80114 6.40199 7.20739 6.18324 7.56818C5.96449 7.92614 5.63494 8.20881 5.1946 8.41619C4.75426 8.62358 4.20028 8.72727 3.53267 8.72727H0ZM1.58097 7.40625H3.28125C3.85511 7.40625 4.26847 7.29688 4.52131 7.07812C4.77699 6.85653 4.90483 6.57244 4.90483 6.22585C4.90483 5.96733 4.84091 5.73438 4.71307 5.52699C4.58523 5.31676 4.40341 5.15199 4.16761 5.03267C3.93182 4.91051 3.65057 4.84943 3.32386 4.84943H1.58097V7.40625ZM1.58097 3.71165H3.14489C3.41761 3.71165 3.66335 3.66193 3.8821 3.5625C4.10085 3.46023 4.27273 3.31676 4.39773 3.1321C4.52557 2.9446 4.58949 2.72301 4.58949 2.46733C4.58949 2.12926 4.47017 1.85085 4.23153 1.6321C3.99574 1.41335 3.64489 1.30398 3.17898 1.30398H1.58097V3.71165Z" fill="url(#paint0_linear_8965_11811)"/>
<path d="M8.18672 8.72727V0H13.8629V1.32528H9.76768V3.6946H13.5688V5.01989H9.76768V7.40199H13.8969V8.72727H8.18672Z" fill="url(#paint1_linear_8965_11811)"/>
<path d="M15.3923 1.32528V0H22.3553V1.32528H19.6579V8.72727H18.0897V1.32528H15.3923Z" fill="url(#paint2_linear_8965_11811)"/>
<path d="M24.0637 8.72727H22.3762L25.4487 0H27.4004L30.4771 8.72727H28.7896L26.4586 1.78977H26.3904L24.0637 8.72727ZM24.1191 5.3054H28.7214V6.57528H24.1191V5.3054Z" fill="url(#paint3_linear_8965_11811)"/>
</g>
<defs>
<linearGradient id="paint0_linear_8965_11811" x1="0" y1="4.36364" x2="30.4771" y2="4.36364" gradientUnits="userSpaceOnUse">
<stop stop-color="#FEAC5E"/>
<stop offset="0.5" stop-color="#C779D0"/>
<stop offset="1" stop-color="#4BC0C8"/>
</linearGradient>
<linearGradient id="paint1_linear_8965_11811" x1="0" y1="4.36364" x2="30.4771" y2="4.36364" gradientUnits="userSpaceOnUse">
<stop stop-color="#FEAC5E"/>
<stop offset="0.5" stop-color="#C779D0"/>
<stop offset="1" stop-color="#4BC0C8"/>
</linearGradient>
<linearGradient id="paint2_linear_8965_11811" x1="0" y1="4.36364" x2="30.4771" y2="4.36364" gradientUnits="userSpaceOnUse">
<stop stop-color="#FEAC5E"/>
<stop offset="0.5" stop-color="#C779D0"/>
<stop offset="1" stop-color="#4BC0C8"/>
</linearGradient>
<linearGradient id="paint3_linear_8965_11811" x1="0" y1="4.36364" x2="30.4771" y2="4.36364" gradientUnits="userSpaceOnUse">
<stop stop-color="#FEAC5E"/>
<stop offset="0.5" stop-color="#C779D0"/>
<stop offset="1" stop-color="#4BC0C8"/>
</linearGradient>
</defs>
</svg>
