<svg width="22" height="23" viewBox="0 0 22 23" fill="none" xmlns="http://www.w3.org/2000/svg">
<rect y="0.5" width="22" height="22" rx="11" fill="#F2F2F2"/>
<g clip-path="url(#clip0_9436_3025)">
<path d="M13.25 7C12.38 7 11.545 7.405 11 8.045C10.455 7.405 9.62 7 8.75 7C7.21 7 6 8.21 6 9.75C6 11.64 7.7 13.18 10.275 15.52L11 16.175L11.725 15.515C14.3 13.18 16 11.64 16 9.75C16 8.21 14.79 7 13.25 7ZM11.05 14.775L11 14.825L10.95 14.775C8.57 12.62 7 11.195 7 9.75C7 8.75 7.75 8 8.75 8C9.52 8 10.27 8.495 10.535 9.18H11.47C11.73 8.495 12.48 8 13.25 8C14.25 8 15 8.75 15 9.75C15 11.195 13.43 12.62 11.05 14.775Z" fill="#323232"/>
</g>
<defs>
<clipPath id="clip0_9436_3025">
<rect width="12" height="12" fill="white" transform="translate(5 5.5)"/>
</clipPath>
</defs>
</svg>
