<svg width="146" height="34" viewBox="0 0 146 34" fill="none" xmlns="http://www.w3.org/2000/svg">
<g id="Logo">
<path id="Vector" d="M24.0303 23.688C24.0303 26.6839 23.0707 28.9519 21.1516 30.492C19.2604 32.004 16.4791 32.76 12.8078 32.76H0.834381V2.18397H11.8065C15.5334 2.18397 18.3982 2.89797 20.4007 4.32597C22.4311 5.72596 23.4462 7.82596 23.4462 10.626C23.4462 12.054 23.0846 13.342 22.3615 14.49C21.6661 15.6379 20.6093 16.5199 19.1908 17.136C20.8317 17.556 22.0416 18.3679 22.8204 19.572C23.6269 20.748 24.0303 22.12 24.0303 23.688ZM7.88493 14.826H11.7648C14.852 14.826 16.3956 13.7059 16.3956 11.466C16.3956 10.206 16.034 9.29596 15.3109 8.73597C14.5878 8.17597 13.4197 7.89597 11.8065 7.89597H7.88493V14.826ZM17.0214 23.646C17.0214 22.3579 16.7015 21.378 16.0619 20.706C15.45 20.034 14.4487 19.698 13.0581 19.698H7.88493V27.09H12.8078C14.2262 27.09 15.2831 26.7679 15.9784 26.124C16.6738 25.48 17.0214 24.654 17.0214 23.646ZM38.9481 2.18397C42.536 2.18397 45.3311 2.98197 47.3337 4.57797C49.364 6.17397 50.3792 8.46997 50.3792 11.466C50.3792 13.65 49.9202 15.4279 49.0024 16.8C48.1125 18.144 46.7913 19.236 45.0391 20.076L51.4221 32.466V32.76H43.871L38.5726 21.924H34.2756V32.76H27.3084V2.18397H38.9481ZM34.2756 16.212H38.8647C40.3388 16.212 41.4513 15.862 42.2022 15.162C42.9531 14.434 43.3286 13.4119 43.3286 12.096C43.3286 10.78 42.9531 9.75796 42.2022 9.02997C41.4791 8.27397 40.3944 7.89597 38.9481 7.89597H34.2756V16.212ZM62.4611 2.18397H68.9693L80.2335 32.76H72.7658L70.8884 26.964H60.5003L58.6647 32.76H51.1552L62.4611 2.18397ZM65.7152 10.836L62.3777 21.294H69.0111L65.7152 10.836ZM81.2198 4.24197C81.2198 3.26197 81.5674 2.44996 82.2627 1.80597C82.9858 1.16197 83.9037 0.839966 85.0162 0.839966C86.1288 0.839966 87.0187 1.16197 87.6862 1.80597C88.3538 2.42197 88.6875 3.23397 88.6875 4.24197C88.6875 5.24997 88.3538 6.07597 87.6862 6.71997C87.0187 7.36396 86.1288 7.68597 85.0162 7.68597C83.9037 7.68597 82.9858 7.36396 82.2627 6.71997C81.5674 6.07597 81.2198 5.24997 81.2198 4.24197ZM81.5952 10.038H88.3955V32.76H81.5952V10.038ZM99.1463 13.818V32.76H92.1375V2.18397H99.1463L110.369 21.126V2.18397H117.336V32.76H110.327L99.1463 13.818ZM130.814 2.18397C133.539 2.18397 135.959 2.81397 138.073 4.07397C140.214 5.30596 141.869 7.04196 143.037 9.28197C144.206 11.494 144.79 14.028 144.79 16.884V18.06C144.79 20.944 144.206 23.506 143.037 25.746C141.869 27.958 140.214 29.68 138.073 30.912C135.959 32.1439 133.525 32.76 130.772 32.76H121.177V2.18397H130.814ZM128.227 27.09H130.772C133.052 27.09 134.777 26.334 135.945 24.822C137.113 23.2819 137.697 21.028 137.697 18.06V16.842C137.697 13.8739 137.113 11.6479 135.945 10.164C134.804 8.65197 133.094 7.89597 130.814 7.89597H128.227V27.09Z" fill="black"/>
</g>
</svg>
