<svg width="129" height="126" viewBox="0 0 129 126" fill="none" xmlns="http://www.w3.org/2000/svg">
<g id="Group 1000006039">
<circle id="Ellipse 752" cx="114.246" cy="111.962" r="2.31198" fill="black" stroke="black" stroke-width="0.0763804"/>
<g id="Group 1000006038">
<path id="Ellipse 748" d="M128.277 19.1304C128.277 21.4713 126.379 23.369 124.038 23.369C121.697 23.369 119.8 21.4713 119.8 19.1304C119.8 16.7895 121.697 14.8918 124.038 14.8918C126.379 14.8918 128.277 16.7895 128.277 19.1304Z" fill="black" stroke="black" stroke-width="0.140031"/>
<circle id="Ellipse 749" cx="15.9303" cy="7.37951" r="6.5506" fill="black" stroke="black" stroke-width="0.216411"/>
<path id="Ellipse 750" d="M11.5645 92.7689C11.5645 94.6842 10.0118 96.2369 8.09654 96.2369C6.18123 96.2369 4.62857 94.6842 4.62857 92.7689C4.62857 90.8536 6.18123 89.3009 8.09654 89.3009C10.0118 89.3009 11.5645 90.8536 11.5645 92.7689Z" fill="black" stroke="black" stroke-width="0.114571"/>
<circle id="Ellipse 751" cx="42.9576" cy="122.929" r="2.31198" fill="black" stroke="black" stroke-width="0.0763804"/>
<path id="Ellipse 753" d="M86.0244 118.621C86.0244 119.259 85.5069 119.777 84.8684 119.777C84.23 119.777 83.7125 119.259 83.7125 118.621C83.7125 117.982 84.23 117.465 84.8684 117.465C85.5069 117.465 86.0244 117.982 86.0244 118.621Z" fill="black" stroke="black" stroke-width="0.0381902"/>
<path id="Ellipse 754" d="M119.71 75.5342C119.71 76.1726 119.192 76.6902 118.554 76.6902C117.916 76.6902 117.398 76.1726 117.398 75.5342C117.398 74.8958 117.916 74.3782 118.554 74.3782C119.192 74.3782 119.71 74.8958 119.71 75.5342Z" fill="black" stroke="black" stroke-width="0.0381902"/>
<path id="Ellipse 755" d="M75.8408 3.46268C75.8408 4.10112 75.3233 4.61867 74.6848 4.61867C74.0464 4.61867 73.5289 4.10112 73.5289 3.46268C73.5289 2.82425 74.0464 2.30669 74.6848 2.30669C75.3233 2.30669 75.8408 2.82425 75.8408 3.46268Z" fill="black" stroke="black" stroke-width="0.0381902"/>
<path id="Ellipse 756" d="M2.98537 52.0327C2.98537 52.6712 2.46781 53.1887 1.82938 53.1887C1.19095 53.1887 0.673392 52.6712 0.673392 52.0327C0.673392 51.3943 1.19095 50.8768 1.82938 50.8768C2.46781 50.8768 2.98537 51.3943 2.98537 52.0327Z" fill="black" stroke="black" stroke-width="0.0381902"/>
<g id="Group 1000006037">
<circle id="Ellipse 747" cx="67.2426" cy="62.6083" r="46.2395" fill="black" stroke="black" stroke-width="1.52761"/>
<g id="Group 1000006036">
<rect id="Rectangle 3042" x="50.7716" y="46.1376" width="32.9415" height="32.9415" rx="16.4707" fill="#FEFEFE" stroke="black" stroke-width="1.52761"/>
</g>
</g>
</g>
</g>
</svg>
