<svg width="22" height="22" viewBox="0 0 22 22" fill="none" xmlns="http://www.w3.org/2000/svg">
<g id="Ai-Generate-Portrait-Image-Spark--Streamline-Core 2" clip-path="url(#clip0_8964_10289)">
<g id="ai-generate-portrait-image-spark--picture-photography-photo-image-artificial-intelligence-ai">
<path id="Vector_2" d="M7.97712 16.7026H2.47712C2.06036 16.7026 1.66065 16.5369 1.36596 16.2423C1.07126 15.9476 0.905701 15.5479 0.905701 15.1311V2.55972C0.905701 2.14294 1.07126 1.74325 1.36596 1.44854C1.66065 1.15384 2.06036 0.988281 2.47712 0.988281H15.0486C15.4653 0.988281 15.865 1.15384 16.1598 1.44854C16.4544 1.74325 16.6201 2.14294 16.6201 2.55972V7.274" stroke="url(#paint0_angular_8964_10289)" stroke-width="1.57143" stroke-linecap="round" stroke-linejoin="round"/>
<path id="Vector 2136" d="M11.5336 16.5989C10.9821 16.5029 10.9821 15.7113 11.5336 15.6153C13.5314 15.2678 15.1205 13.746 15.5541 11.7651L15.5873 11.6132C15.7066 11.0682 16.4827 11.0648 16.6067 11.6088L16.6471 11.7857C17.0968 13.7573 18.6862 15.2662 20.6786 15.6128C21.2328 15.7092 21.2328 16.5049 20.6786 16.6014C18.6862 16.9479 17.0968 18.4568 16.6471 20.4285L16.6067 20.6054C16.4827 21.1493 15.7066 21.146 15.5873 20.6009L15.5541 20.4491C15.1205 18.4681 13.5314 16.9464 11.5336 16.5989Z" stroke="url(#paint1_angular_8964_10289)" stroke-width="1.57143" stroke-linecap="round" stroke-linejoin="round"/>
<path id="B" d="M12.573 10.8413C12.573 11.8313 12.2524 12.5808 11.6113 13.09C10.9796 13.5991 10.0697 13.8537 8.88173 13.8537H4.95001V3.61426H8.55644C9.77273 3.61426 10.7109 3.84997 11.3709 4.3214C12.0309 4.7834 12.3609 5.48111 12.3609 6.41454C12.3609 6.8954 12.2336 7.32911 11.979 7.71569C11.7339 8.10226 11.3709 8.39454 10.89 8.59254C11.4557 8.73397 11.8753 9.01211 12.1487 9.42697C12.4316 9.8324 12.573 10.3038 12.573 10.8413ZM7.08558 7.8854H8.55644C9.11273 7.8854 9.52758 7.78169 9.80101 7.57426C10.0839 7.3574 10.2253 7.04626 10.2253 6.64083C10.2253 6.17883 10.0886 5.84411 9.81516 5.63669C9.55116 5.42926 9.13158 5.32554 8.55644 5.32554H7.08558V7.8854ZM10.4516 10.8271C10.4516 9.8654 9.95658 9.38454 8.96658 9.38454H7.08558V12.1424H8.88173C9.39087 12.1424 9.77744 12.0245 10.0414 11.7888C10.3149 11.5437 10.4516 11.2231 10.4516 10.8271Z" fill="url(#paint2_angular_8964_10289)"/>
</g>
</g>
<defs>
<radialGradient id="paint0_angular_8964_10289" cx="0" cy="0" r="1" gradientUnits="userSpaceOnUse" gradientTransform="translate(8.76288 8.84542) scale(7.85718 7.85714)">
<stop stop-color="#FEAC5E"/>
<stop offset="0.375" stop-color="#4BC0C8"/>
<stop offset="0.625" stop-color="#C779D0"/>
</radialGradient>
<radialGradient id="paint1_angular_8964_10289" cx="0" cy="0" r="1" gradientUnits="userSpaceOnUse" gradientTransform="translate(16.1071 16.1071) scale(4.98714 4.90444)">
<stop stop-color="#FEAC5E"/>
<stop offset="0.375" stop-color="#4BC0C8"/>
<stop offset="0.625" stop-color="#C779D0"/>
</radialGradient>
<radialGradient id="paint2_angular_8964_10289" cx="0" cy="0" r="1" gradientUnits="userSpaceOnUse" gradientTransform="translate(8.76151 8.73397) scale(3.8115 5.11971)">
<stop stop-color="#FEAC5E"/>
<stop offset="0.375" stop-color="#4BC0C8"/>
<stop offset="0.625" stop-color="#C779D0"/>
</radialGradient>
<clipPath id="clip0_8964_10289">
<rect width="22" height="22" fill="white"/>
</clipPath>
</defs>
</svg>
