<svg width="20" height="21" viewBox="0 0 20 21" fill="none" xmlns="http://www.w3.org/2000/svg">
<g id="share" clip-path="url(#clip0_9398_2531)">
<path id="Vector" d="M15 13.9001C14.3667 13.9001 13.8 14.1501 13.3667 14.5417L7.425 11.0834C7.46667 10.8917 7.5 10.7001 7.5 10.5001C7.5 10.3001 7.46667 10.1084 7.425 9.91675L13.3 6.49175C13.75 6.90841 14.3417 7.16675 15 7.16675C16.3833 7.16675 17.5 6.05008 17.5 4.66675C17.5 3.28341 16.3833 2.16675 15 2.16675C13.6167 2.16675 12.5 3.28341 12.5 4.66675C12.5 4.86675 12.5333 5.05841 12.575 5.25008L6.7 8.67508C6.25 8.25842 5.65833 8.00008 5 8.00008C3.61667 8.00008 2.5 9.11675 2.5 10.5001C2.5 11.8834 3.61667 13.0001 5 13.0001C5.65833 13.0001 6.25 12.7417 6.7 12.3251L12.6333 15.7917C12.5917 15.9667 12.5667 16.1501 12.5667 16.3334C12.5667 17.6751 13.6583 18.7667 15 18.7667C16.3417 18.7667 17.4333 17.6751 17.4333 16.3334C17.4333 14.9917 16.3417 13.9001 15 13.9001ZM15 3.83341C15.4583 3.83341 15.8333 4.20841 15.8333 4.66675C15.8333 5.12508 15.4583 5.50008 15 5.50008C14.5417 5.50008 14.1667 5.12508 14.1667 4.66675C14.1667 4.20841 14.5417 3.83341 15 3.83341ZM5 11.3334C4.54167 11.3334 4.16667 10.9584 4.16667 10.5001C4.16667 10.0417 4.54167 9.66675 5 9.66675C5.45833 9.66675 5.83333 10.0417 5.83333 10.5001C5.83333 10.9584 5.45833 11.3334 5 11.3334ZM15 17.1834C14.5417 17.1834 14.1667 16.8084 14.1667 16.3501C14.1667 15.8917 14.5417 15.5167 15 15.5167C15.4583 15.5167 15.8333 15.8917 15.8333 16.3501C15.8333 16.8084 15.4583 17.1834 15 17.1834Z" fill="#404040"/>
</g>
<defs>
<clipPath id="clip0_9398_2531">
<rect width="20" height="20" fill="white" transform="translate(0 0.5)"/>
</clipPath>
</defs>
</svg>
