<svg width="20" height="20" viewBox="0 0 20 20" fill="none" xmlns="http://www.w3.org/2000/svg">
<g id="Iconly/Sharp/Outline/Bag 3">
<path fill-rule="evenodd" clip-rule="evenodd" d="M6.0254 5.43118C6.03486 3.23995 7.81882 1.47274 10.0093 1.48148C12.1992 1.48221 13.9745 3.25813 13.9745 5.44894V8.75996H12.7245V5.44894C12.7245 3.94781 11.5079 2.73148 10.0079 2.73148H10.0052C8.50431 2.725 7.28256 3.93518 7.27539 5.4353V8.75996H6.02539L6.0254 5.43118Z" fill="black"/>
<path id="_2" fill-rule="evenodd" clip-rule="evenodd" d="M10.0003 18.5183C5.39795 18.5183 1.66699 14.7873 1.66699 10.185L1.66699 5.44544L18.3337 5.44544L18.3337 10.185C18.3337 14.7873 14.6027 18.5183 10.0003 18.5183ZM2.91699 10.185C2.91699 14.097 6.08831 17.2683 10.0003 17.2683C13.9123 17.2683 17.0837 14.097 17.0837 10.185L17.0837 6.69544L2.91699 6.69544L2.91699 10.185Z" fill="black"/>
</g>
</svg>
