<svg width="24" height="24" viewBox="0 0 24 24" fill="none" xmlns="http://www.w3.org/2000/svg">
<g id="icon / jam-icons / filled / flag-f">
<path id="Vector" d="M6 3H18C18.5304 3 19.0391 3.21071 19.4142 3.58579C19.7893 3.96086 20 4.46957 20 5V12C20 12.5304 19.7893 13.0391 19.4142 13.4142C19.0391 13.7893 18.5304 14 18 14H6V21C6 21.2652 5.89464 21.5196 5.70711 21.7071C5.51957 21.8946 5.26522 22 5 22C4.73478 22 4.48043 21.8946 4.29289 21.7071C4.10536 21.5196 4 21.2652 4 21V3C4 2.73478 4.10536 2.48043 4.29289 2.29289C4.48043 2.10536 4.73478 2 5 2C5.26522 2 5.51957 2.10536 5.70711 2.29289C5.89464 2.48043 6 2.73478 6 3Z" fill="#697077"/>
</g>
</svg>
