<svg width="349" height="80" viewBox="0 0 349 80" fill="none" xmlns="http://www.w3.org/2000/svg">
<g opacity="0.9">
<path d="M57.6 56.4C57.6 63.5333 55.3 68.9333 50.7 72.6C46.1668 76.2 39.5 78 30.7 78H2V5.20001H28.3C37.2332 5.20001 44.1 6.9 48.9 10.3C53.7668 13.6333 56.2 18.6333 56.2 25.3C56.2 28.7 55.3332 31.7668 53.6 34.5C51.9333 37.2333 49.4 39.3333 46 40.8C49.9333 41.8 52.8333 43.7333 54.7 46.6C56.6333 49.4 57.6 52.6668 57.6 56.4ZM18.9 35.3H28.2C35.6 35.3 39.3 32.6333 39.3 27.3C39.3 24.3 38.4333 22.1333 36.7 20.8C34.9668 19.4667 32.1667 18.8 28.3 18.8H18.9V35.3ZM40.8 56.3C40.8 53.2333 40.0332 50.9 38.5 49.3C37.0332 47.7 34.6332 46.9 31.3 46.9H18.9V64.5H30.7C34.1 64.5 36.6332 63.7333 38.3 62.2C39.9668 60.6668 40.8 58.7 40.8 56.3ZM93.3577 5.20001C101.958 5.20001 108.658 7.1 113.458 10.9C118.325 14.7 120.758 20.1667 120.758 27.3C120.758 32.5 119.658 36.7333 117.458 40C115.325 43.2 112.158 45.8 107.958 47.8L123.258 77.3V78H105.158L92.4577 52.2H82.1578V78H65.4577V5.20001H93.3577ZM82.1578 38.6H93.1578C96.6913 38.6 99.3577 37.7668 101.158 36.1C102.958 34.3668 103.858 31.9333 103.858 28.8C103.858 25.6667 102.958 23.2333 101.158 21.5C99.4245 19.7 96.8245 18.8 93.3577 18.8H82.1578V38.6ZM149.718 5.20001H165.318L192.318 78H174.418L169.918 64.2H145.018L140.618 78H122.618L149.718 5.20001ZM157.518 25.8L149.518 50.7H165.418L157.518 25.8ZM194.682 10.1C194.682 7.76668 195.515 5.83333 197.182 4.3C198.915 2.76667 201.115 2 203.782 2C206.449 2 208.582 2.76667 210.182 4.3C211.782 5.76668 212.582 7.70001 212.582 10.1C212.582 12.5 211.782 14.4667 210.182 16C208.582 17.5333 206.449 18.3 203.782 18.3C201.115 18.3 198.915 17.5333 197.182 16C195.515 14.4667 194.682 12.5 194.682 10.1ZM195.582 23.9H211.882V78H195.582V23.9ZM237.652 32.9V78H220.852V5.20001H237.652L264.552 50.3V5.20001H281.253V78H264.453L237.652 32.9ZM313.557 5.20001C320.09 5.20001 325.89 6.70001 330.957 9.70001C336.09 12.6333 340.058 16.7667 342.858 22.1C345.658 27.3668 347.057 33.4 347.057 40.2V43C347.057 49.8668 345.658 55.9668 342.858 61.3C340.058 66.5667 336.09 70.6668 330.957 73.6C325.89 76.5333 320.057 78 313.457 78H290.457V5.20001H313.557ZM307.358 64.5H313.457C318.922 64.5 323.058 62.7 325.858 59.1C328.658 55.4333 330.057 50.0668 330.057 43V40.1C330.057 33.0333 328.658 27.7333 325.858 24.2C323.123 20.6 319.022 18.8 313.557 18.8H307.358V64.5Z" fill="white"/>
</g>
</svg>
