<svg width="25" height="24" viewBox="0 0 25 24" fill="none" xmlns="http://www.w3.org/2000/svg">
<g id="icon / jam-icons / outline &#38; logos / more-horizontal">
<path id="Vector" d="M5.66602 13C5.93123 13 6.18559 12.8946 6.37312 12.7071C6.56066 12.5196 6.66602 12.2652 6.66602 12C6.66602 11.7348 6.56066 11.4804 6.37312 11.2929C6.18559 11.1054 5.93123 11 5.66602 11C5.4008 11 5.14645 11.1054 4.95891 11.2929C4.77137 11.4804 4.66602 11.7348 4.66602 12C4.66602 12.2652 4.77137 12.5196 4.95891 12.7071C5.14645 12.8946 5.4008 13 5.66602 13ZM5.66602 15C4.87037 15 4.1073 14.6839 3.5447 14.1213C2.98209 13.5587 2.66602 12.7956 2.66602 12C2.66602 11.2044 2.98209 10.4413 3.5447 9.87868C4.1073 9.31607 4.87037 9 5.66602 9C6.46167 9 7.22473 9.31607 7.78734 9.87868C8.34995 10.4413 8.66602 11.2044 8.66602 12C8.66602 12.7956 8.34995 13.5587 7.78734 14.1213C7.22473 14.6839 6.46167 15 5.66602 15ZM19.666 15C18.8704 15 18.1073 14.6839 17.5447 14.1213C16.9821 13.5587 16.666 12.7956 16.666 12C16.666 11.2044 16.9821 10.4413 17.5447 9.87868C18.1073 9.31607 18.8704 9 19.666 9C20.4617 9 21.2247 9.31607 21.7873 9.87868C22.3499 10.4413 22.666 11.2044 22.666 12C22.666 12.7956 22.3499 13.5587 21.7873 14.1213C21.2247 14.6839 20.4617 15 19.666 15ZM19.666 13C19.9312 13 20.1856 12.8946 20.3731 12.7071C20.5607 12.5196 20.666 12.2652 20.666 12C20.666 11.7348 20.5607 11.4804 20.3731 11.2929C20.1856 11.1054 19.9312 11 19.666 11C19.4008 11 19.1464 11.1054 18.9589 11.2929C18.7714 11.4804 18.666 11.7348 18.666 12C18.666 12.2652 18.7714 12.5196 18.9589 12.7071C19.1464 12.8946 19.4008 13 19.666 13ZM12.666 15C11.8704 15 11.1073 14.6839 10.5447 14.1213C9.98209 13.5587 9.66602 12.7956 9.66602 12C9.66602 11.2044 9.98209 10.4413 10.5447 9.87868C11.1073 9.31607 11.8704 9 12.666 9C13.4617 9 14.2247 9.31607 14.7873 9.87868C15.3499 10.4413 15.666 11.2044 15.666 12C15.666 12.7956 15.3499 13.5587 14.7873 14.1213C14.2247 14.6839 13.4617 15 12.666 15ZM12.666 13C12.9312 13 13.1856 12.8946 13.3731 12.7071C13.5607 12.5196 13.666 12.2652 13.666 12C13.666 11.7348 13.5607 11.4804 13.3731 11.2929C13.1856 11.1054 12.9312 11 12.666 11C12.4008 11 12.1464 11.1054 11.9589 11.2929C11.7714 11.4804 11.666 11.7348 11.666 12C11.666 12.2652 11.7714 12.5196 11.9589 12.7071C12.1464 12.8946 12.4008 13 12.666 13Z" fill="#697077"/>
</g>
</svg>
