<svg width="73" height="173" viewBox="0 0 73 173" fill="none" xmlns="http://www.w3.org/2000/svg">
<g id="noun-man-jeans-967996 1" clip-path="url(#clip0_8641_7020)">
<g id="Group">
<path id="Vector" d="M60.8695 100.969C60.9913 104.087 63.4442 106.53 66.3975 106.53C66.4737 106.53 66.5512 106.528 66.6281 106.525C69.6853 106.395 72.0613 103.696 71.9374 100.496C71.2935 84.3568 69.7947 72.5072 67.8251 63.6764L57.2051 67.0901C58.8818 74.9179 60.2872 85.8709 60.8695 100.969Z" fill="#BFBFBF"/>
<path id="Vector_2" d="M17.498 58.6659V87.9387C18.6313 88.1757 20.7712 88.6048 23.3847 89.0346C27.2831 89.6789 32.213 90.3182 36.2229 90.3167C40.2313 90.3182 45.1612 89.6796 49.0596 89.0346C51.6731 88.6048 53.813 88.1757 54.9463 87.9394V58.6905C54.9906 58.8224 55.0349 58.9427 55.0792 59.0783C55.6192 60.7112 56.1551 62.5899 56.6709 64.736L67.2722 61.328C65.873 55.6776 64.2703 51.3709 62.5852 48.0165C60.3844 43.6721 57.9502 40.9013 55.5486 39.2379C54.1751 38.2754 52.841 37.7383 51.707 37.4513C51.059 37.1599 50.3452 36.9968 49.5955 36.9968H45.8771C45.2478 43.4844 36.2222 53.0959 36.2222 53.0959C36.2222 53.0959 27.1959 43.4837 26.5665 36.9961H22.8482C22.0984 36.9961 21.386 37.1585 20.738 37.4498C19.6033 37.7368 18.2685 38.2739 16.8922 39.2372C13.2729 41.766 9.66316 46.6344 6.70562 55.8718C6.17393 57.5359 5.66162 59.3508 5.17285 61.3273L15.7762 64.736C16.3356 62.4087 16.9158 60.3931 17.498 58.6659Z" fill="#BFBFBF"/>
<path id="Vector_3" d="M5.8133 106.525C5.89015 106.528 5.96769 106.53 6.04453 106.53C8.99792 106.53 11.4515 104.087 11.5733 100.969C12.1451 85.8665 13.5637 74.9186 15.2418 67.0923L4.61976 63.6778C2.64946 72.5087 1.13746 84.3561 0.504686 100.497C0.380071 103.696 2.75607 106.395 5.8133 106.525Z" fill="#BFBFBF"/>
<path id="Vector_4" d="M46.0458 92.4215C46.0451 92.4629 46.0444 92.5006 46.0444 92.5491C46.0444 92.7687 46.052 93.0557 46.0756 93.3913L44.6951 93.4942C44.6716 93.1456 44.6633 92.8477 44.6619 92.6035C41.8456 92.9557 38.8839 93.213 36.2227 93.2152C33.5607 93.213 30.5983 92.9557 27.782 92.6035C27.7807 92.8477 27.7723 93.1449 27.7488 93.4942L26.3683 93.3913C26.3919 93.0557 26.3995 92.7687 26.3995 92.5491C26.3995 92.5006 26.3988 92.4629 26.3981 92.4215C22.6555 91.9062 19.3186 91.2648 17.4985 90.893V96.447L17.0395 103.863C17.2285 103.83 17.4272 103.804 17.6079 103.765L17.8869 105.184C17.5864 105.248 17.2652 105.296 16.9481 105.347L13.4118 162.53C13.1058 167.47 16.6837 171.731 21.399 172.051C26.1163 172.37 30.1885 168.629 30.4945 163.688L34.046 106.292H38.4L41.9515 163.688C42.2568 168.629 46.329 172.37 51.047 172.051C55.763 171.732 59.3402 167.47 59.0342 162.53L55.4979 105.347C55.1808 105.296 54.8589 105.248 54.5591 105.184L54.8381 103.765C55.0188 103.804 55.2182 103.829 55.4065 103.863L54.9475 96.447V90.8922C53.1253 91.2648 49.7884 91.9069 46.0458 92.4215ZM26.2077 94.759L27.5702 95.0105C27.4927 95.4765 27.3867 95.9774 27.242 96.4999L25.9128 96.0991C26.0395 95.6302 26.135 95.1816 26.2077 94.759ZM25.4815 97.3864V97.3893L26.7588 97.9466C26.5747 98.4047 26.3607 98.8664 26.1094 99.3273L24.9076 98.6069C25.1298 98.201 25.3188 97.7922 25.4815 97.3864ZM24.1938 99.7332L25.2932 100.616C25.0031 101.011 24.677 101.4 24.3184 101.774L23.3437 100.746C23.6587 100.417 23.9404 100.079 24.1938 99.7332ZM22.3689 101.625L23.1983 102.783C22.8182 103.081 22.4097 103.365 21.968 103.628L21.2861 102.364C21.6759 102.133 22.0352 101.884 22.3689 101.625ZM20.1168 102.961L20.6547 104.299C20.2227 104.489 19.7679 104.662 19.2867 104.813L18.8859 103.427C19.3207 103.287 19.7319 103.133 20.1168 102.961ZM52.3264 102.961C52.7113 103.133 53.1219 103.287 53.5567 103.427L53.1558 104.813C52.6753 104.662 52.2198 104.489 51.7878 104.299L52.3264 102.961ZM50.0743 101.625C50.4073 101.884 50.7673 102.133 51.1571 102.364L50.4752 103.628C50.0328 103.365 49.6243 103.081 49.245 102.783L50.0743 101.625ZM49.1003 100.745L48.1255 101.774C47.7662 101.4 47.4408 101.01 47.1507 100.615L48.2501 99.7325C48.5028 100.079 48.7846 100.417 49.1003 100.745ZM46.9617 97.3864C47.1244 97.7922 47.3134 98.2003 47.5357 98.6069L46.3338 99.3273C46.0832 98.8664 45.8686 98.4047 45.6844 97.9466L46.9617 97.3893V97.3864ZM46.2355 94.759C46.3075 95.1816 46.403 95.6302 46.5304 96.0991L45.2012 96.4999C45.0565 95.9774 44.9513 95.4765 44.873 95.0105L46.2355 94.759Z" fill="#BFBFBF"/>
<path id="Vector_5" d="M36.2234 32.8656C44.8263 32.8656 51.8003 25.5643 51.8003 16.5578C51.8003 7.55124 44.8263 0.25 36.2234 0.25C27.6205 0.25 20.6465 7.55124 20.6465 16.5578C20.6465 25.5643 27.6205 32.8656 36.2234 32.8656Z" fill="#BFBFBF"/>
</g>
</g>
<defs>
<clipPath id="clip0_8641_7020">
<rect width="72" height="172.5" fill="white" transform="translate(0.5 0.25)"/>
</clipPath>
</defs>
</svg>
