<svg width="24" height="24" viewBox="0 0 24 24" fill="none" xmlns="http://www.w3.org/2000/svg">
<g id="icon / jam-icons / outline &#38; logos / refresh">
<path id="Vector" d="M19.3305 6.69404L19.7505 5.31704C19.7889 5.19143 19.8517 5.07462 19.9352 4.97327C20.0188 4.87192 20.1215 4.78802 20.2374 4.72637C20.3534 4.66471 20.4804 4.6265 20.6112 4.61392C20.7419 4.60133 20.8739 4.61463 20.9995 4.65304C21.1251 4.69145 21.2419 4.75423 21.3432 4.83779C21.4446 4.92134 21.5285 5.02404 21.5901 5.14002C21.6518 5.256 21.69 5.38299 21.7026 5.51374C21.7152 5.64449 21.7019 5.77643 21.6635 5.90204L20.4935 9.72704C20.4159 9.98053 20.2409 10.1929 20.0069 10.3174C19.7729 10.4419 19.499 10.4684 19.2455 10.391L15.4205 9.22104C15.2922 9.18495 15.1725 9.12359 15.0683 9.04058C14.9641 8.95757 14.8776 8.85458 14.8137 8.73765C14.7499 8.62073 14.71 8.49222 14.6966 8.35969C14.6831 8.22716 14.6962 8.09326 14.7352 7.96587C14.7741 7.83849 14.8382 7.72017 14.9235 7.61787C15.0089 7.51557 15.1138 7.43136 15.2321 7.37017C15.3504 7.30898 15.4798 7.27206 15.6126 7.26156C15.7454 7.25106 15.879 7.2672 16.0055 7.30904L17.6775 7.82004C16.9383 6.69894 15.9073 5.80072 14.6955 5.22212C13.4837 4.64353 12.137 4.40648 10.8005 4.53652C9.46399 4.66655 8.18826 5.15873 7.11071 5.96006C6.03317 6.76138 5.19465 7.84149 4.68546 9.08404L4.42546 9.71704C4.37818 9.842 4.30633 9.95621 4.21417 10.0529C4.12201 10.1497 4.0114 10.2269 3.88887 10.2802C3.76635 10.3335 3.63439 10.3616 3.5008 10.3631C3.3672 10.3645 3.23468 10.3391 3.11105 10.2885C2.98743 10.2378 2.8752 10.1629 2.78101 10.0681C2.68682 9.97339 2.61256 9.86072 2.56264 9.7368C2.51271 9.61288 2.48812 9.48021 2.49033 9.34662C2.49253 9.21304 2.52148 9.08125 2.57546 8.95904L2.83546 8.32604C3.48169 6.74932 4.54518 5.37839 5.91174 4.36046C7.2783 3.34253 8.89632 2.71604 10.5921 2.54827C12.2878 2.3805 13.9972 2.67777 15.5367 3.40817C17.0763 4.13858 18.3878 5.27452 19.3305 6.69404ZM3.80846 17.307L3.48146 18.618C3.45221 18.7481 3.39725 18.8709 3.31984 18.9794C3.24242 19.0879 3.1441 19.1798 3.03066 19.2497C2.91722 19.3197 2.79094 19.3662 2.65925 19.3867C2.52755 19.4071 2.3931 19.401 2.26379 19.3688C2.13449 19.3365 2.01293 19.2787 1.90628 19.1988C1.79962 19.1189 1.71001 19.0185 1.64271 18.9035C1.57542 18.7884 1.53179 18.6611 1.51441 18.529C1.49702 18.3968 1.50622 18.2626 1.54146 18.134L2.50846 14.254C2.54109 14.1219 2.60033 13.9979 2.68257 13.8895C2.7648 13.781 2.8683 13.6906 2.98672 13.6235C3.10514 13.5565 3.236 13.5143 3.37127 13.4996C3.50655 13.4849 3.64341 13.498 3.77346 13.538L7.60146 14.492C7.85886 14.5562 8.08021 14.72 8.21683 14.9474C8.35345 15.1748 8.39415 15.4471 8.32996 15.7045C8.26578 15.9619 8.10198 16.1833 7.87459 16.3199C7.6472 16.4565 7.37486 16.4972 7.11746 16.433L5.33146 15.988C6.09498 17.1569 7.17422 18.0853 8.44401 18.6657C9.71379 19.246 11.1221 19.4545 12.5055 19.2669C13.889 19.0793 15.1909 18.5033 16.2603 17.6058C17.3297 16.7083 18.1228 15.526 18.5475 14.196C18.6281 13.9433 18.8058 13.7329 19.0416 13.6112C19.1583 13.5509 19.2857 13.5143 19.4166 13.5032C19.5475 13.4922 19.6793 13.5071 19.8045 13.547C19.9296 13.587 20.0457 13.6511 20.146 13.7359C20.2464 13.8207 20.329 13.9244 20.3893 14.0411C20.4496 14.1579 20.4862 14.2853 20.4973 14.4162C20.5083 14.5471 20.4934 14.6789 20.4535 14.804C20.0372 16.11 19.3397 17.3089 18.4102 18.3163C17.4807 19.3237 16.3418 20.1152 15.0735 20.635C13.0973 21.4446 10.9041 21.5561 8.85602 20.951C6.80794 20.346 5.02743 19.0606 3.80846 17.307Z" fill="#697077"/>
</g>
</svg>
