<svg width="24" height="24" viewBox="0 0 24 24" fill="none" xmlns="http://www.w3.org/2000/svg">
<rect width="24" height="24" rx="12" fill="#F2F2F2"/>
<path fill-rule="evenodd" clip-rule="evenodd" d="M10.2167 9.07911C10.2221 8.10274 11.0185 7.31183 11.9949 7.31183C13.004 7.30638 13.784 8.10274 13.784 9.09002V9.22093H14.6021V9.09002C14.6021 7.65547 13.4349 6.49365 12.0058 6.49365H11.9949C10.5712 6.49365 9.40395 7.65002 9.3985 9.09002V9.22093H10.2167V9.07911Z" fill="#007AFF"/>
<path fill-rule="evenodd" clip-rule="evenodd" d="M14.6021 9.22093L14.6021 11.2555H13.7839L13.784 9.22093H10.2167L10.2167 11.2555H9.39849L9.3985 9.22093H6.68213V12.1882C6.68213 15.1227 9.06576 17.5064 12.0003 17.5064C14.9349 17.5064 17.3185 15.1227 17.3185 12.1882V9.22093H14.6021Z" fill="#007AFF"/>
</svg>
